<?xml version="1.0" encoding="utf-8"?>
<!-- Generator: Adobe Illustrator 21.0.0, SVG Export Plug-In . SVG Version: 6.00 Build 0)  -->
<svg version="1.1" id="Layer_1" xmlns="http://www.w3.org/2000/svg" xmlns:xlink="http://www.w3.org/1999/xlink" x="0px" y="0px"
	 viewBox="0 0 55 50" enable-background="new 0 0 55 50" xml:space="preserve">
<g>
	<path fill="#FFFFFF" d="M51.5,24.5c3.9,12.7-10.6,24.2-23.7,24.2S0,37.2,4,24.5C8.2,11,14.6,2.7,27.7,2.7S47.2,11,51.5,24.5"/>
	<path fill-opacity="0.08" d="M52.7,24.1c-1.2-3.9-2.8-8.1-5.1-11.7c0.6-0.2,1.2-0.5,1.6-0.9c2.3-2.1,2.1-6.1-0.5-8.9
		S42.3-0.8,40,1.3c-0.8,0.7-1.3,1.6-1.5,2.6c-3-1.5-6.5-2.4-10.8-2.4c-4.1,0-7.7,0.8-10.8,2.3c-0.2-1-0.7-1.8-1.5-2.5
		c-2.3-2.1-6.2-1.5-8.8,1.3s-2.8,6.8-0.5,8.9c0.5,0.5,1,0.7,1.6,0.9c-2,3.1-3.6,6.9-5.1,11.7c-1.5,5-0.5,10.2,2.9,14.9
		c4.8,6.6,13.7,10.9,22.1,10.9S44.9,45.5,49.7,39C53.3,34.3,54.2,29.1,52.7,24.1z M47.7,37.4c-4.3,5.8-12.5,9.9-20,9.9
		s-15.7-4.1-20-9.9c-2.1-2.8-4.1-7.2-2.5-12.5C9.8,10.2,16.5,4,27.7,4s18,6.2,22.5,20.8C51.9,30.2,49.8,34.6,47.7,37.4z"/>
	<path fill-opacity="0.08" d="M44.2,20.6c-0.8-2-2.1-3.8-3.8-4.9c-1.5-1-3.1-1.5-4.6-1.3c-2,0.2-3.6,1.6-4.4,3.7
		c-0.3,0.8-0.4,1.6-0.5,2.4l5.5,9.6c1.2,0.6,2.4,0.8,3.6,0.7c2-0.2,3.6-1.6,4.4-3.7C45.1,25.1,45,22.8,44.2,20.6"/>
	<path fill="#FFFFFF" d="M40.4,21.9c0,1.7-1.4,3-3,3c-1.7,0-3-1.4-3-3s1.4-3,3-3C39,18.8,40.4,20.2,40.4,21.9"/>
	<path fill-opacity="0.08" d="M39.1,22c0,0.9-0.8,1.7-1.7,1.7s-1.7-0.8-1.7-1.7c0-0.9,0.8-1.7,1.7-1.7C38.3,20.2,39.1,21,39.1,22"/>
	<path fill-opacity="0.08" d="M24.4,20.7c0-0.9-0.1-1.7-0.5-2.5c-0.8-2.1-2.3-3.5-4.4-3.7c-1.5-0.2-3.1,0.3-4.6,1.3
		c-1.6,1.2-3,2.9-3.8,4.9c-0.8,2.2-0.9,4.5-0.2,6.4c0.8,2.1,2.3,3.5,4.4,3.7c1.2,0.1,2.5-0.1,3.7-0.8L24.4,20.7z"/>
	<path fill="#FFFFFF" d="M15,21.9c0,1.7,1.4,3,3,3c1.7,0,3-1.4,3-3s-1.4-3-3-3C16.4,18.8,15,20.2,15,21.9"/>
	<path fill-opacity="0.08" d="M16.3,22c0,0.9,0.8,1.7,1.7,1.7c0.9,0,1.7-0.8,1.7-1.7c0-0.9-0.8-1.7-1.7-1.7C17,20.2,16.3,21,16.3,22
		"/>
	<path fill-opacity="0.08" d="M37.4,32.1c0-0.1-0.2-0.2-0.3-0.2s-0.2,0.1-0.3,0.3c-0.2,2.5-2.3,4.3-5.1,4.3c-1.2,0-2.3-0.4-3.2-1.2
		v-3.1c1.9-0.5,3.3-2.6,3.3-3.8c0-1.4-1.8-2.4-4.1-2.4s-4.1,1.1-4.1,2.4c0,1.2,1.5,3.4,3.3,3.8v3.1c-0.9,0.7-2.1,1.2-3.2,1.2
		c-2.8,0-5-1.8-5.1-4.3c0-0.1-0.1-0.3-0.3-0.3c-0.1,0-0.3,0.1-0.3,0.2c-0.3,0.9-0.5,1.5-0.5,2.5c0,5.4,4.6,9.9,10.2,9.9
		s10.2-4.4,10.2-9.9C37.9,33.6,37.7,33,37.4,32.1"/>
	<path fill="#FFFFFF" d="M22.8,38.7c0.9,1.8,2.8,3,4.9,3s4-1.2,4.9-3c-0.6,0.3-1.2,0.5-1.9,0.5c-1.2,0-2.3-0.5-3-1.3
		c-0.8,0.8-1.8,1.3-3,1.3C24,39.2,23.4,39,22.8,38.7"/>
</g>
</svg>
