<?xml version="1.0" encoding="UTF-8"?>
<svg width="56px" height="48px" viewBox="0 0 321 255" version="1.1" xmlns="http://www.w3.org/2000/svg" xmlns:xlink="http://www.w3.org/1999/xlink">
    <g id="Page-1" stroke="none" stroke-width="1" fill="none" fill-rule="evenodd" fill-opacity="0.04">
        <g id="logo-simple" fill="#000000">
            <g id="Group">
                <path d="M187.097,245.598522 C198.98,241.846522 282.334,208.258522 299.367,201.793522 C301.072,201.146522 301.554,198.978522 300.283,197.668522 C298.405,195.730522 294.965,193.553522 288.949,193.458522 C280.58,193.325522 208.439,216.188522 208.439,216.188522 C208.439,216.188522 174.419,221.925522 170.249,221.230522 C166.078,220.535522 164.851,217.754522 164.851,214.973522 C164.851,212.193522 167.428,208.921522 173.684,208.225522 C179.941,207.530522 216.402,205.405522 222.635,201.600522 C228.932,197.757522 227.958,191.171522 224.352,189.823522 C219.333,187.947522 115.491,187.533522 63.802,188.514522 C56.937,188.644522 40.277,188.285522 18,188.351522 C22.022,213.903522 29.237,235.703522 44.826,254.926522 C59.549,247.402522 75.784,242.276522 95.535,243.149522 C109.579,243.769522 173.89,249.769522 187.097,245.598522" id="Fill-10"></path>
                <path d="M100.372,48.981 C91.392,60.37 69.85,92.062 68.211,135.798 C68.054,140.001 65.044,143.267 61.477,143.146 L48.095,143.141 C43.789,142.996 40.687,137.666 41.853,132.777 C46.108,114.949 59.562,76.072 99.411,47.666 C100.156,47.135 100.965,48.23 100.372,48.981 Z M314.19,155.203 L301.089,155.203 C298.331,81.636 239.352,22.474 165.845,19.483 L165.845,5.833 C165.845,2.611 163.233,0 160.012,0 C156.789,0 154.178,2.611 154.178,5.833 L154.178,19.483 C80.672,22.474 21.693,81.636 18.935,155.203 L5.834,155.203 C2.612,155.203 0,157.814 0,161.036 C0,164.258 2.612,166.869 5.834,166.869 L314.19,166.869 C317.411,166.869 320.023,164.258 320.023,161.036 C320.023,157.814 317.411,155.203 314.19,155.203 L314.19,155.203 Z" id="Fill-11"></path>
            </g>
        </g>
    </g>
</svg>
