<svg width="24" height="16" xmlns="http://www.w3.org/2000/svg"><defs><linearGradient x1="0%" y1="61.088%" x2="100%" y2="61.088%" id="subscription-pro-logo"><stop stop-color="#F51F7A" offset="0%"/><stop stop-color="#B80D55" offset="100%"/></linearGradient></defs><path d="M24 2l-1.585 12-18.92-.001.731-3.584h.024c.14.305.376.546.704.724.329.176.696.265 1.102.265.438 0 .847-.078 1.226-.235.38-.156.717-.372 1.013-.649.296-.276.544-.601.744-.976.2-.376.339-.781.417-1.219.07-.428.07-.83-.001-1.205a2.437 2.437 0 00-.409-.983 2.041 2.041 0 00-.796-.655c-.329-.157-.712-.235-1.15-.235-.383 0-.768.087-1.155.26a2.734 2.734 0 00-.843.578l-.138.151H4.94l.136-.84H4.001L2.42 13.998 0 14 1.596 2H24zm-5.733 3.247c-.422 0-.829.08-1.22.24-.392.162-.748.382-1.068.662-.32.28-.59.606-.81.977a3.42 3.42 0 00-.434 1.2c-.078.428-.07.83.025 1.205.095.375.253.701.475.977.222.276.503.494.844.655.34.161.722.242 1.144.242.422 0 .829-.081 1.22-.242.392-.16.748-.379 1.068-.655.32-.276.587-.602.803-.977.216-.375.363-.777.44-1.205.071-.429.06-.829-.03-1.2a2.486 2.486 0 00-.475-.977c-.225-.28-.507-.5-.844-.661a2.614 2.614 0 00-1.138-.241zm-4.145 0c-.358 0-.712.097-1.06.29-.35.194-.62.448-.814.761h-.024l.15-.903h-1.075l-.986 5.861h1.075l.493-2.943c.11-.643.328-1.116.657-1.422.329-.305.756-.457 1.282-.457.087 0 .173.008.256.025.083.016.168.037.254.061l.256-1.199a1.331 1.331 0 00-.464-.074zM6.79 6.286c.287 0 .535.051.747.154.212.103.384.243.518.42.133.178.22.392.265.643.043.252.04.526-.01.822-.05.297-.141.572-.273.823a2.396 2.396 0 01-.482.643c-.189.177-.406.317-.653.42a2.046 2.046 0 01-.8.155c-.286 0-.537-.052-.752-.155a1.337 1.337 0 01-.518-.42 1.5 1.5 0 01-.258-.643 2.439 2.439 0 01.01-.823c.05-.296.138-.57.266-.822a2.24 2.24 0 01.481-.643 2.25 2.25 0 01.66-.42c.246-.103.512-.154.799-.154zm11.299 0c.286 0 .535.051.747.154.212.103.384.243.517.42.133.178.222.392.265.644.043.251.04.525-.01.822-.05.297-.14.57-.272.822a2.393 2.393 0 01-.482.643c-.19.177-.407.317-.653.42a2.045 2.045 0 01-.8.155c-.286 0-.537-.052-.753-.155a1.338 1.338 0 01-.517-.42 1.5 1.5 0 01-.259-.643 2.44 2.44 0 01.01-.822c.05-.297.139-.571.266-.822a2.24 2.24 0 01.482-.643c.193-.178.413-.318.66-.421.245-.103.512-.154.799-.154z" fill="url(#subscription-pro-logo)" fill-rule="nonzero"/></svg>
